<svg viewBox="20 20 640 640" xmlns="http://www.w3.org/2000/svg" width="680" height="680" role="img">
<title>SDL Probe</title>
<desc>Black rounded square with the teal pixel-lettered wordmark "SDL".</desc>
<rect x="20" y="20" width="640" height="640" rx="115" fill="#000000"/>
<rect x="31" y="31" width="618" height="618" rx="104" fill="none" stroke="#2ee6c8" stroke-width="22"/>
<g fill="#2ee6c8" shape-rendering="crispEdges">
<rect x="70" y="230" width="160" height="10"/><rect x="260" y="230" width="150" height="10"/><rect x="450" y="230" width="40" height="10"/>
<rect x="70" y="240" width="160" height="10"/><rect x="260" y="240" width="150" height="10"/><rect x="450" y="240" width="40" height="10"/>
<rect x="70" y="250" width="160" height="10"/><rect x="260" y="250" width="150" height="10"/><rect x="450" y="250" width="40" height="10"/>
<rect x="70" y="260" width="160" height="10"/><rect x="260" y="260" width="150" height="10"/><rect x="450" y="260" width="40" height="10"/>
<rect x="70" y="270" width="40" height="10"/><rect x="260" y="270" width="40" height="10"/><rect x="380" y="270" width="40" height="10"/><rect x="450" y="270" width="40" height="10"/>
<rect x="70" y="280" width="40" height="10"/><rect x="260" y="280" width="40" height="10"/><rect x="380" y="280" width="40" height="10"/><rect x="450" y="280" width="40" height="10"/>
<rect x="70" y="290" width="40" height="10"/><rect x="260" y="290" width="40" height="10"/><rect x="380" y="290" width="40" height="10"/><rect x="450" y="290" width="40" height="10"/>
<rect x="70" y="300" width="40" height="10"/><rect x="260" y="300" width="40" height="10"/><rect x="380" y="300" width="40" height="10"/><rect x="450" y="300" width="40" height="10"/>
<rect x="70" y="310" width="40" height="10"/><rect x="260" y="310" width="40" height="10"/><rect x="380" y="310" width="40" height="10"/><rect x="450" y="310" width="40" height="10"/>
<rect x="70" y="320" width="160" height="10"/><rect x="260" y="320" width="40" height="10"/><rect x="380" y="320" width="40" height="10"/><rect x="450" y="320" width="40" height="10"/>
<rect x="70" y="330" width="160" height="10"/><rect x="260" y="330" width="40" height="10"/><rect x="380" y="330" width="40" height="10"/><rect x="450" y="330" width="40" height="10"/>
<rect x="70" y="340" width="160" height="10"/><rect x="260" y="340" width="40" height="10"/><rect x="380" y="340" width="40" height="10"/><rect x="450" y="340" width="40" height="10"/>
<rect x="70" y="350" width="160" height="10"/><rect x="260" y="350" width="40" height="10"/><rect x="380" y="350" width="40" height="10"/><rect x="450" y="350" width="40" height="10"/>
<rect x="190" y="360" width="40" height="10"/><rect x="260" y="360" width="40" height="10"/><rect x="380" y="360" width="40" height="10"/><rect x="450" y="360" width="40" height="10"/>
<rect x="190" y="370" width="40" height="10"/><rect x="260" y="370" width="40" height="10"/><rect x="380" y="370" width="40" height="10"/><rect x="450" y="370" width="40" height="10"/>
<rect x="190" y="380" width="40" height="10"/><rect x="260" y="380" width="40" height="10"/><rect x="380" y="380" width="40" height="10"/><rect x="450" y="380" width="40" height="10"/>
<rect x="190" y="390" width="40" height="10"/><rect x="260" y="390" width="40" height="10"/><rect x="380" y="390" width="40" height="10"/><rect x="450" y="390" width="40" height="10"/>
<rect x="190" y="400" width="40" height="10"/><rect x="260" y="400" width="40" height="10"/><rect x="380" y="400" width="40" height="10"/><rect x="450" y="400" width="40" height="10"/>
<rect x="70" y="410" width="160" height="10"/><rect x="260" y="410" width="150" height="10"/><rect x="450" y="410" width="160" height="10"/>
<rect x="70" y="420" width="160" height="10"/><rect x="260" y="420" width="150" height="10"/><rect x="450" y="420" width="160" height="10"/>
<rect x="70" y="430" width="160" height="10"/><rect x="260" y="430" width="150" height="10"/><rect x="450" y="430" width="160" height="10"/>
<rect x="70" y="440" width="160" height="10"/><rect x="260" y="440" width="150" height="10"/><rect x="450" y="440" width="160" height="10"/>
</g>
</svg>
