<svg viewBox="20 20 640 640" xmlns="http://www.w3.org/2000/svg" width="680" height="680" role="img">
<title>GLUT Demo</title>
<desc>Black rounded square with teal pixel art: the Utah teapot in silhouette, with spout, handle and lid knob.</desc>
<rect x="20" y="20" width="640" height="640" rx="115" fill="#000000"/>
<rect x="31" y="31" width="618" height="618" rx="104" fill="none" stroke="#2ee6c8" stroke-width="22"/>
<g fill="#2ee6c8" shape-rendering="crispEdges">
<rect x="320" y="180" width="30" height="10"/>
<rect x="310" y="190" width="50" height="10"/>
<rect x="300" y="200" width="70" height="10"/>
<rect x="300" y="210" width="70" height="10"/>
<rect x="300" y="220" width="70" height="10"/>
<rect x="270" y="230" width="130" height="10"/>
<rect x="250" y="240" width="170" height="10"/>
<rect x="110" y="250" width="30" height="10"/><rect x="240" y="250" width="190" height="10"/>
<rect x="110" y="260" width="30" height="10"/><rect x="230" y="260" width="210" height="10"/>
<rect x="100" y="270" width="40" height="10"/><rect x="240" y="270" width="190" height="10"/>
<rect x="100" y="280" width="30" height="10"/><rect x="250" y="280" width="170" height="10"/><rect x="510" y="280" width="10" height="10"/>
<rect x="90" y="290" width="40" height="10"/><rect x="240" y="290" width="190" height="10"/><rect x="500" y="290" width="60" height="10"/>
<rect x="80" y="300" width="60" height="10"/><rect x="220" y="300" width="230" height="10"/><rect x="500" y="300" width="70" height="10"/>
<rect x="90" y="310" width="60" height="10"/><rect x="210" y="310" width="250" height="10"/><rect x="500" y="310" width="80" height="10"/>
<rect x="100" y="320" width="60" height="10"/><rect x="200" y="320" width="270" height="10"/><rect x="500" y="320" width="90" height="10"/>
<rect x="110" y="330" width="60" height="10"/><rect x="190" y="330" width="290" height="10"/><rect x="540" y="330" width="60" height="10"/>
<rect x="120" y="340" width="370" height="10"/><rect x="550" y="340" width="50" height="10"/>
<rect x="130" y="350" width="370" height="10"/><rect x="560" y="350" width="40" height="10"/>
<rect x="140" y="360" width="360" height="10"/><rect x="560" y="360" width="40" height="10"/>
<rect x="160" y="370" width="340" height="10"/><rect x="560" y="370" width="50" height="10"/>
<rect x="170" y="380" width="330" height="10"/><rect x="560" y="380" width="40" height="10"/>
<rect x="160" y="390" width="350" height="10"/><rect x="560" y="390" width="40" height="10"/>
<rect x="170" y="400" width="330" height="10"/><rect x="550" y="400" width="50" height="10"/>
<rect x="170" y="410" width="330" height="10"/><rect x="540" y="410" width="60" height="10"/>
<rect x="170" y="420" width="420" height="10"/>
<rect x="170" y="430" width="410" height="10"/>
<rect x="180" y="440" width="310" height="10"/><rect x="500" y="440" width="70" height="10"/>
<rect x="190" y="450" width="290" height="10"/><rect x="500" y="450" width="60" height="10"/>
<rect x="200" y="460" width="270" height="10"/><rect x="510" y="460" width="10" height="10"/>
<rect x="210" y="470" width="250" height="10"/>
<rect x="220" y="480" width="230" height="10"/>
<rect x="220" y="490" width="10" height="10"/><rect x="240" y="490" width="190" height="10"/><rect x="440" y="490" width="10" height="10"/>
<rect x="210" y="500" width="250" height="10"/>
<rect x="200" y="510" width="270" height="10"/>
<rect x="210" y="520" width="250" height="10"/>
<rect x="220" y="530" width="10" height="10"/><rect x="440" y="530" width="10" height="10"/>
</g>
</svg>
